<?xml version="1.0" encoding="utf-8"?>
<!-- Generator: Adobe Illustrator 22.1.0, SVG Export Plug-In . SVG Version: 6.00 Build 0)  -->
<svg version="1.1" width="13.3" height="11.7" id="Layer_1" xmlns="http://www.w3.org/2000/svg" xmlns:xlink="http://www.w3.org/1999/xlink" x="0px" y="0px"
	 viewBox="0 0 13.3 11.7" style="enable-background:new 0 0 13.3 11.7;" xml:space="preserve">
<style type="text/css">
	.st0{fill:#FFFFFF;}
</style>
<title>A7992685-7FF4-4E20-882C-A212FF561C61</title>
<desc>Created with sketchtool.</desc>
<g id="_xD83C__xDFA8_-Icon-Сolor">
	<path id="path-1_1_" class="st0" d="M12.5,5H2.6l3-3.6C5.9,1,5.9,0.5,5.5,0.2C5.2-0.1,4.7-0.1,4.4,0.3l-4.2,5c0,0,0,0.1-0.1,0.1
		c0,0,0,0.1-0.1,0.1C0,5.6,0,5.7,0,5.8c0,0,0,0,0,0s0,0,0,0C0,5.9,0,6,0.1,6.1c0,0,0,0.1,0.1,0.1c0,0,0,0.1,0.1,0.1l4.2,5
		c0.2,0.2,0.4,0.3,0.6,0.3c0.2,0,0.4-0.1,0.5-0.2c0.4-0.3,0.4-0.8,0.1-1.2l-3-3.6h9.9c0.5,0,0.8-0.4,0.8-0.8S13,5,12.5,5"/>
</g>
</svg>
