<?xml version="1.0" encoding="utf-8"?>
<!-- Generator: Adobe Illustrator 22.1.0, SVG Export Plug-In . SVG Version: 6.00 Build 0)  -->
<svg version="1.1" width="13.3" height="11.5" id="Layer_1" xmlns="http://www.w3.org/2000/svg" xmlns:xlink="http://www.w3.org/1999/xlink" x="0px" y="0px"
	 viewBox="0 0 13.3 11.5" style="enable-background:new 0 0 13.3 11.5;" xml:space="preserve">
<style type="text/css">
	.st0{fill:#00E096;}
</style>
<g id="arrow-right" transform="translate(168.000000, 10.000000)">
	<g id="_xD83C__xDFA8_-Icon-Сolor">
		<path id="path-1_1_" class="st0" d="M-167.2-3.4h9.9l-3,3.6c-0.3,0.3-0.2,0.9,0.1,1.2c0.4,0.3,0.9,0.2,1.2-0.1l4.2-4.9
			c0,0,0-0.1,0.1-0.1c0,0,0-0.1,0.1-0.1c0-0.1,0.1-0.2,0.1-0.3c0,0,0,0,0,0s0,0,0,0c0-0.1,0-0.2-0.1-0.3c0,0,0-0.1-0.1-0.1
			c0,0,0-0.1-0.1-0.1l-4.2-4.9c-0.2-0.2-0.4-0.3-0.6-0.3c-0.2,0-0.4,0.1-0.5,0.2c-0.4,0.3-0.4,0.8-0.1,1.2l3,3.6h-9.9
			c-0.5,0-0.8,0.4-0.8,0.8S-167.6-3.4-167.2-3.4"/>
	</g>
</g>
</svg>
