<?xml version="1.0" encoding="utf-8"?>
<!-- Generator: Adobe Illustrator 22.1.0, SVG Export Plug-In . SVG Version: 6.00 Build 0)  -->
<svg version="1.1" width="10.5" height="12" id="Layer_1" xmlns="http://www.w3.org/2000/svg" xmlns:xlink="http://www.w3.org/1999/xlink" x="0px" y="0px"
	 viewBox="0 0 10.5 12" style="enable-background:new 0 0 10.5 12;" xml:space="preserve">
<style type="text/css">
	.st0{fill:#FFFFFF;}
</style>
<g id="arrow-right" transform="translate(168.000000, 10.000000)">
	<g id="_xD83C__xDFA8_-Icon-Сolor">
		<path id="path-1_1_" class="st0" d="M-186.2,12.6h9.9l-3,3.6c-0.3,0.3-0.2,0.9,0.1,1.2c0.4,0.3,0.9,0.2,1.2-0.1l4.2-4.9
			c0,0,0-0.1,0.1-0.1c0,0,0-0.1,0.1-0.1c0-0.1,0.1-0.2,0.1-0.3c0,0,0,0,0,0c0,0,0,0,0,0c0-0.1,0-0.2-0.1-0.3c0,0,0-0.1-0.1-0.1
			c0,0,0-0.1-0.1-0.1l-4.2-4.9c-0.2-0.2-0.4-0.3-0.6-0.3c-0.2,0-0.4,0.1-0.5,0.2c-0.4,0.3-0.4,0.8-0.1,1.2l3,3.6h-9.9
			c-0.5,0-0.8,0.4-0.8,0.8S-186.6,12.6-186.2,12.6"/>
	</g>
</g>
<g id="arrow-down" transform="translate(0.000000, 6.000000)">
	<g id="_xD83C__xDFA8_-Icon-Сolor_1_">
		<path id="path-4_1_" class="st0" d="M17.3,26c-0.3-0.3-0.7-0.4-1.1-0.1L13,28.6v-8.9c0-0.4-0.3-0.8-0.8-0.8s-0.8,0.3-0.8,0.8v8.9
			l-3.3-2.7c-0.3-0.3-0.8-0.2-1.1,0.1c-0.3,0.3-0.2,0.8,0.1,1.1l4.5,3.8c0,0,0.1,0,0.1,0.1c0,0,0.1,0,0.1,0.1c0.1,0,0.2,0.1,0.3,0.1
			s0.2,0,0.3-0.1c0,0,0.1,0,0.1-0.1c0,0,0.1,0,0.1-0.1l4.5-3.8C17.5,26.8,17.6,26.3,17.3,26"/>
	</g>
</g>
<g id="_xD83C__xDFA8_-Icon-Сolor_2_" transform="translate(5.250054, 12.000000) rotate(180.000000) translate(-5.250054, -12.000000) ">
	<path id="path-4_2_" class="st0" d="M0.2,5c0.3,0.3,0.7,0.4,1.1,0.1l3.3-2.7v8.9c0,0.4,0.3,0.8,0.8,0.8C5.7,12,6,11.7,6,11.3V2.4
		l3.3,2.7c0.3,0.3,0.8,0.2,1.1-0.1c0.3-0.3,0.2-0.8-0.1-1.1L5.7,0.2c0,0-0.1,0-0.1-0.1c0,0-0.1,0-0.1-0.1C5.4,0,5.3,0,5.2,0
		C5.2,0,5.1,0,5,0.1c0,0-0.1,0-0.1,0.1c0,0-0.1,0-0.1,0.1L0.3,3.9C0,4.2-0.1,4.7,0.2,5"/>
</g>
</svg>
