<?xml version="1.0" encoding="utf-8"?>
<!-- Generator: Adobe Illustrator 22.1.0, SVG Export Plug-In . SVG Version: 6.00 Build 0)  -->
<svg version="1.1" width="10.5" height="12" id="Layer_1" xmlns="http://www.w3.org/2000/svg" xmlns:xlink="http://www.w3.org/1999/xlink" x="0px" y="0px"
	 viewBox="0 0 10.5 12" style="enable-background:new 0 0 10.5 12;" xml:space="preserve">
<style type="text/css">
	.st0{fill:#FFFFFF;}
</style>
<g id="arrow-right" transform="translate(168.000000, 10.000000)">
	<g id="_xD83C__xDFA8_-Icon-Сolor">
		<path id="path-1_1_" class="st0" d="M-186.2,12.6h9.9l-3,3.6c-0.3,0.3-0.2,0.9,0.1,1.2c0.4,0.3,0.9,0.2,1.2-0.1l4.2-4.9
			c0,0,0-0.1,0.1-0.1c0,0,0-0.1,0.1-0.1c0-0.1,0.1-0.2,0.1-0.3c0,0,0,0,0,0c0,0,0,0,0,0c0-0.1,0-0.2-0.1-0.3c0,0,0-0.1-0.1-0.1
			c0,0,0-0.1-0.1-0.1l-4.2-4.9c-0.2-0.2-0.4-0.3-0.6-0.3c-0.2,0-0.4,0.1-0.5,0.2c-0.4,0.3-0.4,0.8-0.1,1.2l3,3.6h-9.9
			c-0.5,0-0.8,0.4-0.8,0.8S-186.6,12.6-186.2,12.6"/>
	</g>
</g>
<g id="arrow-down" transform="translate(0.000000, 6.000000)">
	<g id="_xD83C__xDFA8_-Icon-Сolor_1_">
		<path id="path-4_1_" class="st0" d="M10.3,1c-0.3-0.3-0.7-0.4-1.1-0.1L6,3.6v-8.9C6-5.7,5.7-6,5.3-6C4.8-6,4.5-5.7,4.5-5.3v8.9
			L1.2,0.9C0.9,0.7,0.4,0.7,0.2,1C-0.1,1.3,0,1.8,0.3,2.1l4.5,3.8c0,0,0.1,0,0.1,0.1c0,0,0.1,0,0.1,0.1C5.1,6,5.2,6,5.3,6
			c0.1,0,0.2,0,0.3-0.1c0,0,0.1,0,0.1-0.1c0,0,0.1,0,0.1-0.1l4.5-3.8C10.5,1.8,10.6,1.3,10.3,1"/>
	</g>
</g>
</svg>
