<?xml version="1.0" encoding="UTF-8"?>
<svg width="14px" height="12px" viewBox="0 0 14 12" version="1.1" xmlns="http://www.w3.org/2000/svg" xmlns:xlink="http://www.w3.org/1999/xlink">
    <!-- Generator: sketchtool 57.1 (101010) - https://sketch.com -->
    <title>81A24391-F1A1-4136-82E3-1F4C26267718</title>
    <desc>Created with sketchtool.</desc>
    <defs>
        <path d="M15.8333333,9.16666667 L5.94583333,9.16666667 L8.97333333,5.53333333 C9.26833333,5.18 9.22,4.65416667 8.86666667,4.36 C8.5125,4.065 7.9875,4.11333333 7.69333333,4.46666667 L3.52666667,9.46666667 C3.49416667,9.50583333 3.4775,9.55166667 3.45333333,9.595 C3.43333333,9.63 3.40916667,9.66 3.39416667,9.69833333 C3.35666667,9.79416667 3.33416667,9.895 3.33416667,9.99666667 C3.33416667,9.9975 3.33333333,9.99916667 3.33333333,10 C3.33333333,10.0008333 3.33416667,10.0025 3.33416667,10.0033333 C3.33416667,10.105 3.35666667,10.2058333 3.39416667,10.3016667 C3.40916667,10.34 3.43333333,10.37 3.45333333,10.405 C3.4775,10.4483333 3.49416667,10.4941667 3.52666667,10.5333333 L7.69333333,15.5333333 C7.85833333,15.7308333 8.095,15.8333333 8.33333333,15.8333333 C8.52166667,15.8333333 8.71083333,15.77 8.86666667,15.64 C9.22,15.3458333 9.26833333,14.82 8.97333333,14.4666667 L5.94583333,10.8333333 L15.8333333,10.8333333 C16.2933333,10.8333333 16.6666667,10.46 16.6666667,10 C16.6666667,9.54 16.2933333,9.16666667 15.8333333,9.16666667" id="path-1"></path>
    </defs>
    <g id="Landing-/-Login" stroke="none" stroke-width="1" fill="none" fill-rule="evenodd">
        <g id="Accumulation---Forgot-password---Desktop" transform="translate(-419.000000, -230.000000)">
            <g id="-1)-Button:-Text/4)-48px---Large/1)-Filled/3)-Info-Copy-3" transform="translate(416.000000, 226.000000)">
                <g id="arrow-left">
                    <mask id="mask-2" fill="white">
                        <use xlink:href="#path-1"></use>
                    </mask>
                    <use id="🎨-Icon-Сolor" fill="#FFFFFF" fill-rule="evenodd" xlink:href="#path-1"></use>
                </g>
            </g>
        </g>
    </g>
</svg>