<?xml version="1.0" encoding="utf-8"?>
<!-- Generator: Adobe Illustrator 22.1.0, SVG Export Plug-In . SVG Version: 6.00 Build 0)  -->
<svg version="1.1" width="10.5" height="12" id="Layer_1" xmlns="http://www.w3.org/2000/svg" xmlns:xlink="http://www.w3.org/1999/xlink" x="0px" y="0px"
	 viewBox="0 0 10.5 12" style="enable-background:new 0 0 10.5 12;" xml:space="preserve">
<style type="text/css">
	.st0{fill:#00D68F;}
</style>
<title>48EEE47B-1773-448F-91CA-F4626EAD4900</title>
<desc>Created with sketchtool.</desc>
<g id="_xD83C__xDFA8_-Icon-Сolor" transform="translate(5.250054, 12.000000) rotate(180.000000) translate(-5.250054, -12.000000) ">
	<path id="path-1_1_" class="st0" d="M10.3,19c-0.3-0.3-0.7-0.4-1.1-0.1l-3.3,2.7v-8.8c0-0.4-0.3-0.8-0.8-0.8
		c-0.3,0.1-0.6,0.4-0.6,0.8v8.8l-3.3-2.7C1,18.6,0.5,18.7,0.2,19c-0.3,0.3-0.2,0.8,0.1,1.1l4.5,3.7c0,0,0.1,0,0.1,0.1
		c0,0,0.1,0,0.1,0.1c0.1,0,0.2,0,0.3,0c0,0,0.1,0,0.2-0.1c0,0,0.1,0,0.1-0.1c0,0,0.1,0,0.1-0.1l4.4-3.6C10.5,19.8,10.6,19.3,10.3,19
		"/>
</g>
</svg>
