<?xml version="1.0" encoding="UTF-8"?>
<svg width="80px" height="78px" viewBox="0 0 80 78" version="1.1" xmlns="http://www.w3.org/2000/svg" xmlns:xlink="http://www.w3.org/1999/xlink">
    <!-- Generator: sketchtool 57.1 (101010) - https://sketch.com -->
    <title>9751A565-7923-439F-9D24-216BE84C870E</title>
    <desc>Created with sketchtool.</desc>
    <defs>
        <filter x="-33.3%" y="-33.9%" width="166.7%" height="167.8%" filterUnits="objectBoundingBox" id="filter-1">
            <feOffset dx="0" dy="0" in="SourceAlpha" result="shadowOffsetOuter1"></feOffset>
            <feGaussianBlur stdDeviation="5" in="shadowOffsetOuter1" result="shadowBlurOuter1"></feGaussianBlur>
            <feColorMatrix values="0 0 0 0 0   0 0 0 0 0.839215686   0 0 0 0 0.560784314  0 0 0 1 0" type="matrix" in="shadowBlurOuter1" result="shadowMatrixOuter1"></feColorMatrix>
            <feMerge>
                <feMergeNode in="shadowMatrixOuter1"></feMergeNode>
                <feMergeNode in="SourceGraphic"></feMergeNode>
            </feMerge>
        </filter>
    </defs>
    <g id="Account" stroke="none" stroke-width="1" fill="none" fill-rule="evenodd">
        <g id="Accumulation---Subscription---Desktop" transform="translate(-544.000000, -390.000000)" fill="#00E096">
            <g id="pictograms/calendar/calendar-02-copy" filter="url(#filter-1)" transform="translate(554.000000, 399.000000)">
                <path d="M1.49172414,57.4303481 L57.9310345,57.4303481 L57.9310345,6.51015107 L1.49172414,6.51015107 L1.49172414,57.4303481 Z M58.6758621,58.825422 L0.744827586,58.825422 C0.333103448,58.825422 0,58.513468 0,58.1278851 L0,5.81261412 C0,5.4270312 0.333103448,5.11507718 0.744827586,5.11507718 L58.6758621,5.11507718 C59.0896552,5.11507718 59.4227586,5.4270312 59.4227586,5.81261412 L59.4227586,58.1278851 C59.4227586,58.513468 59.0896552,58.825422 58.6758621,58.825422 L58.6758621,58.825422 Z M23.9782069,38.8033333 C23.1035359,38.8033333 22.3142104,38.6540015 21.6102069,38.3553333 C20.9062034,38.0566652 20.308876,37.6353361 19.8182069,37.0913333 C19.3275378,36.5473306 18.9488749,35.9020037 18.6822069,35.1553333 C18.4155389,34.4086629 18.2822069,33.5980044 18.2822069,32.7233333 C18.2822069,31.8486623 18.4155389,31.0380037 18.6822069,30.2913333 C18.9488749,29.5446629 19.3275378,28.8993361 19.8182069,28.3553333 C20.308876,27.8113306 20.9062034,27.3900015 21.6102069,27.0913333 C22.3142104,26.7926652 23.1035359,26.6433333 23.9782069,26.6433333 C25.6635487,26.6433333 26.9862021,27.0113297 27.9462069,27.7473333 C28.9062117,28.483337 29.6422043,29.6086591 30.1542069,31.1233333 L30.3142069,31.1233333 C30.6342085,29.5446588 31.2315359,28.4033369 32.1062069,27.6993333 C32.9808779,26.9953298 34.0262008,26.6433333 35.2422069,26.6433333 C36.1168779,26.6433333 36.9062034,26.7926652 37.6102069,27.0913333 C38.3142104,27.3900015 38.9115378,27.8113306 39.4022069,28.3553333 C39.892876,28.8993361 40.2715389,29.5446629 40.5382069,30.2913333 C40.8048749,31.0380037 40.9382069,31.8486623 40.9382069,32.7233333 C40.9382069,33.5980044 40.8048749,34.4086629 40.5382069,35.1553333 C40.2715389,35.9020037 39.892876,36.5473306 39.4022069,37.0913333 C38.9115378,37.6353361 38.3142104,38.0566652 37.6102069,38.3553333 C36.9062034,38.6540015 36.1168779,38.8033333 35.2422069,38.8033333 C33.5568651,38.8033333 32.2342117,38.435337 31.2742069,37.6993333 C30.3142021,36.9633297 29.5782095,35.8380076 29.0662069,34.3233333 L28.9062069,34.3233333 C28.5862053,35.9020079 27.9888779,37.0433298 27.1142069,37.7473333 C26.2395359,38.4513369 25.194213,38.8033333 23.9782069,38.8033333 Z M23.9782069,36.6273333 C25.0235455,36.6273333 25.9142032,36.3286697 26.6502069,35.7313333 C27.3862106,35.133997 27.9355384,34.1313404 28.2982069,32.7233333 C27.9355384,31.3153263 27.3862106,30.3126697 26.6502069,29.7153333 C25.9142032,29.117997 25.0235455,28.8193333 23.9782069,28.8193333 C23.0395355,28.8193333 22.2928763,29.1019972 21.7382069,29.6673333 C21.1835375,30.2326695 20.9062069,30.984662 20.9062069,31.9233333 L20.9062069,33.5233333 C20.9062069,34.4620047 21.1835375,35.2139972 21.7382069,35.7793333 C22.2928763,36.3446695 23.0395355,36.6273333 23.9782069,36.6273333 Z M35.2422069,36.6273333 C36.1808783,36.6273333 36.9275375,36.3446695 37.4822069,35.7793333 C38.0368763,35.2139972 38.3142069,34.4620047 38.3142069,33.5233333 L38.3142069,31.9233333 C38.3142069,30.984662 38.0368763,30.2326695 37.4822069,29.6673333 C36.9275375,29.1019972 36.1808783,28.8193333 35.2422069,28.8193333 C34.1968683,28.8193333 33.3062106,29.117997 32.5702069,29.7153333 C31.8342032,30.3126697 31.2848754,31.3153263 30.9222069,32.7233333 C31.2848754,34.1313404 31.8342032,35.133997 32.5702069,35.7313333 C33.3062106,36.3286697 34.1968683,36.6273333 35.2422069,36.6273333 Z M12.4117241,11.625422 L13.9034483,11.625422 L13.9034483,-0.000193760263 L12.4117241,-0.000193760263 L12.4117241,11.625422 Z M45.5151724,11.625422 L47.0068966,11.625422 L47.0068966,-0.000193760263 L45.5151724,-0.000193760263 L45.5151724,11.625422 Z" id="Fill-1"></path>
            </g>
        </g>
    </g>
</svg>