<?xml version="1.0" encoding="UTF-8"?>
<svg width="47px" height="32px" viewBox="0 0 47 32" version="1.1" xmlns="http://www.w3.org/2000/svg" xmlns:xlink="http://www.w3.org/1999/xlink">
    <!-- Generator: sketchtool 56.3 (101010) - https://sketch.com -->
    <title>5E618217-BF5E-4FF0-B7B2-B3249465AC80</title>
    <desc>Created with sketchtool.</desc>
    <g id="Signup-flow" stroke="none" stroke-width="1" fill="none" fill-rule="evenodd">
        <g id="Accumulation---Step-3---Payment---Desktop" transform="translate(-562.000000, -335.000000)" fill="#FFFFFF">
            <g id="pictograms/retail/card" transform="translate(561.000000, 326.000000)">
                <path d="M46.49985,16.08105 L2.57985,16.08105 L2.57985,19.49955 L46.49985,19.49955 L46.49985,16.08105 Z M46.49985,14.99955 L46.49985,12.54105 C46.49985,11.18355 45.39585,10.08105 44.03985,10.08105 L5.03985,10.08105 C3.68385,10.08105 2.57985,11.18355 2.57985,12.54105 L2.57985,14.99955 L46.49985,14.99955 Z M46.49985,20.58105 L2.57985,20.58105 L2.57985,36.54105 C2.57985,37.89705 3.68385,38.99955 5.03985,38.99955 L44.03985,38.99955 C45.39585,38.99955 46.49985,37.89705 46.49985,36.54105 L46.49985,20.58105 Z M44.03985,40.08105 L5.03985,40.08105 C3.08835,40.08105 1.49985,38.49255 1.49985,36.54105 L1.49985,12.54105 C1.49985,10.58805 3.08835,8.99955 5.03985,8.99955 L44.03985,8.99955 C45.99135,8.99955 47.57985,10.58805 47.57985,12.54105 L47.57985,36.54105 C47.57985,38.49255 45.99135,40.08105 44.03985,40.08105 Z" id="Fill-8"></path>
            </g>
        </g>
    </g>
</svg>