<?xml version="1.0" encoding="UTF-8"?>
<svg width="20px" height="20px" viewBox="0 0 20 20" version="1.1" xmlns="http://www.w3.org/2000/svg" xmlns:xlink="http://www.w3.org/1999/xlink">
    <!-- Generator: sketchtool 57.1 (101010) - https://sketch.com -->
    <title>B5726AD6-4021-4E70-B3CC-2B34B1AA78E8</title>
    <desc>Created with sketchtool.</desc>
    <g id="Icons" stroke="none" stroke-width="1" fill="none" fill-rule="evenodd">
        <g transform="translate(-17.000000, -110.000000)" fill="#8F9BB3" id="sun">
            <g transform="translate(15.000000, 108.000000)">
                <path d="M14,12 C14,10.897 13.103,10 12,10 C10.897,10 10,10.897 10,12 C10,13.103 10.897,14 12,14 C13.103,14 14,13.103 14,12 L14,12 Z M16,12 C16,14.206 14.206,16 12,16 C9.794,16 8,14.206 8,12 C8,9.794 9.794,8 12,8 C14.206,8 16,9.794 16,12 L16,12 Z M6.27,16.143 L4.831,17.532 C4.434,17.916 4.423,18.55 4.807,18.946 C5.003,19.149 5.264,19.252 5.526,19.252 C5.776,19.252 6.026,19.159 6.221,18.972 L7.66,17.582 C8.057,17.198 8.068,16.564 7.684,16.168 C7.301,15.771 6.668,15.76 6.27,16.143 L6.27,16.143 Z M17.73,16.143 C17.333,15.76 16.7,15.771 16.316,16.168 C15.932,16.564 15.943,17.198 16.34,17.582 L17.779,18.972 C17.974,19.159 18.224,19.252 18.474,19.252 C18.736,19.252 18.997,19.149 19.193,18.946 C19.577,18.55 19.566,17.916 19.169,17.532 L17.73,16.143 Z M12,18 C11.448,18 11,18.447 11,19 L11,21 C11,21.553 11.448,22 12,22 C12.552,22 13,21.553 13,21 L13,19 C13,18.447 12.552,18 12,18 L12,18 Z M17.035,8.138 C17.285,8.138 17.536,8.045 17.73,7.857 L19.169,6.468 C19.566,6.084 19.577,5.45 19.193,5.054 C18.81,4.657 18.178,4.646 17.779,5.028 L16.34,6.418 C15.943,6.802 15.932,7.436 16.316,7.832 C16.512,8.035 16.773,8.138 17.035,8.138 L17.035,8.138 Z M6.221,5.028 C5.824,4.646 5.191,4.657 4.807,5.054 C4.423,5.45 4.434,6.084 4.831,6.468 L6.27,7.857 C6.464,8.045 6.715,8.138 6.965,8.138 C7.227,8.138 7.488,8.035 7.684,7.832 C8.068,7.436 8.057,6.802 7.66,6.418 L6.221,5.028 Z M6,12 C6,11.447 5.552,11 5,11 L3,11 C2.448,11 2,11.447 2,12 C2,12.553 2.448,13 3,13 L5,13 C5.552,13 6,12.553 6,12 L6,12 Z M21,11 L19,11 C18.448,11 18,11.447 18,12 C18,12.553 18.448,13 19,13 L21,13 C21.552,13 22,12.553 22,12 C22,11.447 21.552,11 21,11 L21,11 Z M11,5 L11,3 C11,2.447 11.448,2 12,2 C12.552,2 13,2.447 13,3 L13,5 C13,5.553 12.552,6 12,6 C11.448,6 11,5.553 11,5 L11,5 Z" id="🎨-Icon-Сolor"></path>
            </g>
        </g>
    </g>
</svg>