<?xml version="1.0" encoding="utf-8"?>
<!-- Generator: Adobe Illustrator 22.1.0, SVG Export Plug-In . SVG Version: 6.00 Build 0)  -->
<svg version="1.1" width="70" height="70" id="Layer_1" xmlns="http://www.w3.org/2000/svg" xmlns:xlink="http://www.w3.org/1999/xlink" x="0px" y="0px"
	 viewBox="0 0 70 70" style="enable-background:new 0 0 70 70;" xml:space="preserve">
<style type="text/css">
	.st0{fill:#FFFFFF;}
	.st1{fill:#8F9BB3;}
</style>
<title>A4D5DD11-35F7-4727-930E-1F2990FEBAEC</title>
<desc>Created with sketchtool.</desc>
<g id="Portfolio---MVP">
	<g id="Accumulation---Portfolio---Desktop" transform="translate(0.000000, -134.000000)">
		<g id="Group-5-Copy" transform="translate(0.000000, 134.000000)">
			<rect id="Rectangle" x="-0.6" class="st0" width="71.9" height="70"/>
		</g>
	</g>
</g>
<g id="Icons">
	<g id="sun" transform="translate(-17.000000, -110.000000)">
		<g transform="translate(15.000000, 108.000000)">
			<path id="_xD83C__xDFA8_-Icon-Сolor" class="st1" d="M40.1,34.5c0-1.1-0.9-2-2-2s-2,0.9-2,2s0.9,2,2,2S40.1,35.6,40.1,34.5
				L40.1,34.5z M42.1,34.5c0,2.2-1.8,4-4,4s-4-1.8-4-4s1.8-4,4-4S42.1,32.3,42.1,34.5L42.1,34.5z M32.4,38.6L30.9,40
				c-0.4,0.4-0.4,1,0,1.4c0.2,0.2,0.5,0.3,0.7,0.3c0.3,0,0.5-0.1,0.7-0.3l1.4-1.4c0.4-0.4,0.4-1,0-1.4
				C33.4,38.3,32.8,38.3,32.4,38.6L32.4,38.6z M43.8,38.6c-0.4-0.4-1-0.4-1.4,0c-0.4,0.4-0.4,1,0,1.4l1.4,1.4
				c0.2,0.2,0.4,0.3,0.7,0.3c0.3,0,0.5-0.1,0.7-0.3c0.4-0.4,0.4-1,0-1.4L43.8,38.6z M38.1,40.5c-0.6,0-1,0.4-1,1v2c0,0.6,0.4,1,1,1
				c0.6,0,1-0.4,1-1v-2C39.1,40.9,38.6,40.5,38.1,40.5L38.1,40.5z M43.1,30.6c0.3,0,0.5-0.1,0.7-0.3l1.4-1.4c0.4-0.4,0.4-1,0-1.4
				c-0.4-0.4-1-0.4-1.4,0l-1.4,1.4c-0.4,0.4-0.4,1,0,1.4C42.6,30.5,42.9,30.6,43.1,30.6L43.1,30.6z M32.3,27.5c-0.4-0.4-1-0.4-1.4,0
				c-0.4,0.4-0.4,1,0,1.4l1.4,1.4c0.2,0.2,0.4,0.3,0.7,0.3c0.3,0,0.5-0.1,0.7-0.3c0.4-0.4,0.4-1,0-1.4L32.3,27.5z M32.1,34.5
				c0-0.6-0.4-1-1-1h-2c-0.6,0-1,0.4-1,1s0.4,1,1,1h2C31.6,35.5,32.1,35.1,32.1,34.5L32.1,34.5z M47.1,33.5h-2c-0.6,0-1,0.4-1,1
				s0.4,1,1,1h2c0.6,0,1-0.4,1-1S47.6,33.5,47.1,33.5L47.1,33.5z M37.1,27.5v-2c0-0.6,0.4-1,1-1c0.6,0,1,0.4,1,1v2c0,0.6-0.4,1-1,1
				C37.5,28.5,37.1,28.1,37.1,27.5L37.1,27.5z"/>
		</g>
	</g>
</g>
</svg>
