<?xml version="1.0" encoding="utf-8"?>
<!-- Generator: Adobe Illustrator 22.1.0, SVG Export Plug-In . SVG Version: 6.00 Build 0)  -->
<svg version="1.1" width="70" height="70" id="Layer_1" xmlns="http://www.w3.org/2000/svg" xmlns:xlink="http://www.w3.org/1999/xlink" x="0px" y="0px"
	 viewBox="0 0 70 70" style="enable-background:new 0 0 70 70;" xml:space="preserve">
<style type="text/css">
	.st0{fill:#222B45;}
	.st1{fill:#8F9BB3;}
</style>
<title>A4D5DD11-35F7-4727-930E-1F2990FEBAEC</title>
<desc>Created with sketchtool.</desc>
<g id="Portfolio---MVP">
	<g id="Accumulation---Portfolio---Desktop" transform="translate(0.000000, -134.000000)">
		<g id="Group-5-Copy" transform="translate(0.000000, 134.000000)">
			<rect id="Rectangle" x="-0.2" class="st0" width="70.6" height="70"/>
		</g>
	</g>
</g>
<g id="Icons">
	<g id="sun" transform="translate(-17.000000, -110.000000)">
		<g transform="translate(15.000000, 108.000000)">
			<path id="_xD83C__xDFA8_-Icon-Сolor" class="st1" d="M39.4,36.5c0-1.1-0.9-2-2-2s-2,0.9-2,2s0.9,2,2,2S39.4,37.6,39.4,36.5
				L39.4,36.5z M41.4,36.5c0,2.2-1.8,4-4,4s-4-1.8-4-4s1.8-4,4-4S41.4,34.3,41.4,36.5L41.4,36.5z M31.6,40.6L30.2,42
				c-0.4,0.4-0.4,1,0,1.4c0.2,0.2,0.5,0.3,0.7,0.3c0.3,0,0.5-0.1,0.7-0.3l1.4-1.4c0.4-0.4,0.4-1,0-1.4C32.7,40.3,32,40.3,31.6,40.6
				L31.6,40.6z M43.1,40.6c-0.4-0.4-1-0.4-1.4,0c-0.4,0.4-0.4,1,0,1.4l1.4,1.4c0.2,0.2,0.4,0.3,0.7,0.3c0.3,0,0.5-0.1,0.7-0.3
				c0.4-0.4,0.4-1,0-1.4L43.1,40.6z M37.4,42.5c-0.6,0-1,0.4-1,1v2c0,0.6,0.4,1,1,1s1-0.4,1-1v-2C38.4,42.9,37.9,42.5,37.4,42.5
				L37.4,42.5z M42.4,32.6c0.3,0,0.5-0.1,0.7-0.3l1.4-1.4c0.4-0.4,0.4-1,0-1.4c-0.4-0.4-1-0.4-1.4,0l-1.4,1.4c-0.4,0.4-0.4,1,0,1.4
				C41.9,32.5,42.1,32.6,42.4,32.6L42.4,32.6z M31.6,29.5c-0.4-0.4-1-0.4-1.4,0c-0.4,0.4-0.4,1,0,1.4l1.4,1.4
				c0.2,0.2,0.4,0.3,0.7,0.3c0.3,0,0.5-0.1,0.7-0.3c0.4-0.4,0.4-1,0-1.4L31.6,29.5z M31.4,36.5c0-0.6-0.4-1-1-1h-2c-0.6,0-1,0.4-1,1
				s0.4,1,1,1h2C30.9,37.5,31.4,37.1,31.4,36.5L31.4,36.5z M46.4,35.5h-2c-0.6,0-1,0.4-1,1s0.4,1,1,1h2c0.6,0,1-0.4,1-1
				S46.9,35.5,46.4,35.5L46.4,35.5z M36.4,29.5v-2c0-0.6,0.4-1,1-1s1,0.4,1,1v2c0,0.6-0.4,1-1,1S36.4,30.1,36.4,29.5L36.4,29.5z"/>
		</g>
	</g>
</g>
</svg>
