<?xml version="1.0" encoding="UTF-8"?>
<svg width="32px" height="32px" viewBox="0 0 32 32" version="1.1" xmlns="http://www.w3.org/2000/svg" xmlns:xlink="http://www.w3.org/1999/xlink">
    <!-- Generator: sketchtool 56.3 (101010) - https://sketch.com -->
    <title>95E25EB5-C326-4F26-BFB1-7FF414FB23E5</title>
    <desc>Created with sketchtool.</desc>
    <g id="Portfolio---MVP" stroke="none" stroke-width="1" fill="none" fill-rule="evenodd">
        <g id="Accumulation---Portfolio---Desktop" transform="translate(-724.000000, -252.000000)" fill-rule="nonzero">
            <g id="iost" transform="translate(724.000000, 252.000000)">
                <circle id="Oval" fill="#1C1C1C" cx="16" cy="16" r="16"></circle>
                <path d="M24.5,11 L24.5,21 L16,26 L7.5,21 L7.5,11 L16,6 L24.5,11 Z M15.732,16.407 L14.942,16.874 L16.418,17.736 L17.203,17.273 L19.302,18.508 L16.171,20.348 L9.676,16.562 L9.649,18.405 L16.175,22.195 L22.445,18.508 L18.771,16.346 L19.511,15.909 L18.035,15.047 L17.3,15.481 L16.27,14.875 L17.171,14.342 L15.695,13.479 L14.798,14.009 L13.044,12.977 L16.174,11.136 L20.502,13.665 L22.088,12.727 L16.171,9.289 L9.901,12.977 L13.23,14.936 L12.602,15.306 L14.078,16.169 L14.701,15.801 L15.732,16.407 Z" id="Shape" fill="#FFFFFF"></path>
            </g>
        </g>
    </g>
</svg>