<?xml version="1.0" encoding="utf-8"?>
<!-- Generator: Adobe Illustrator 22.1.0, SVG Export Plug-In . SVG Version: 6.00 Build 0)  -->
<svg version="1.1" width="13.3" height="16.7" id="Layer_1" xmlns="http://www.w3.org/2000/svg" xmlns:xlink="http://www.w3.org/1999/xlink" x="0px" y="0px"
	 viewBox="0 0 13.3 16.7" style="enable-background:new 0 0 13.3 16.7;" xml:space="preserve">
<style type="text/css">
	.st0{fill:#00D68F;}
</style>
<title>7BA65B75-633A-42B8-B180-811D50864BE3</title>
<desc>Created with sketchtool.</desc>
<g id="Signup-flow">
	<g id="Accumulation---Step-3---Payment-_x2F_-Credit-card---Desktop" transform="translate(-685.000000, -754.000000)">
		
			<g id="_x2D_1_x29_-Button:-Text_x2F_4_x29_-48px---Large_x2F_1_x29_-Filled_x2F_3_x29_-Info-Copy-2" transform="translate(685.000000, 754.000000)">
			<g id="lock" transform="translate(12.000000, 14.000000)">
				<g id="_xD83C__xDFA8_-Icon-Сolor">
					<path id="path-1_1_" class="st0" d="M-5.3-2.3c-0.5,0-0.8-0.4-0.8-0.8S-5.8-4-5.3-4s0.8,0.4,0.8,0.8S-4.9-2.3-5.3-2.3
						 M-5.3-5.7c-1.4,0-2.5,1.1-2.5,2.5s1.1,2.5,2.5,2.5s2.5-1.1,2.5-2.5S-4-5.7-5.3-5.7 M-0.3,0.2C-0.3,0.6-0.7,1-1.2,1h-8.3
						c-0.5,0-0.8-0.4-0.8-0.8v-6.7c0-0.5,0.4-0.8,0.8-0.8h0.8H-7h3.3H-2h0.8c0.5,0,0.8,0.4,0.8,0.8V0.2z M-7-10.6
						c0-1,0.7-1.8,1.7-1.8s1.7,0.8,1.7,1.8V-9H-7V-10.6z M-1.2-9H-2v-1.6c0-1.9-1.5-3.4-3.3-3.4s-3.3,1.5-3.3,3.4V-9h-0.8
						C-10.9-9-12-7.9-12-6.5v6.7c0,1.4,1.1,2.5,2.5,2.5h8.3c1.4,0,2.5-1.1,2.5-2.5v-6.7C1.3-7.9,0.2-9-1.2-9L-1.2-9z"/>
				</g>
			</g>
		</g>
	</g>
</g>
</svg>
