<?xml version="1.0" encoding="UTF-8"?>
<svg width="18px" height="12px" viewBox="0 0 18 12" version="1.1" xmlns="http://www.w3.org/2000/svg" xmlns:xlink="http://www.w3.org/1999/xlink">
    <!-- Generator: sketchtool 57.1 (101010) - https://sketch.com -->
    <title>A627CF50-44C8-438F-A886-FDC79F67DF96</title>
    <desc>Created with sketchtool.</desc>
    <defs>
        <path d="M3.9355,16 L20.0645,16 C20.5427143,16 20.9398776,16.3630051 20.9941753,16.8272008 L21.0005,16.936 L21.0005,17.064 C21.0005,17.5422143 20.6374949,17.9393776 20.1732992,17.9936753 L20.0645,18 L3.9355,18 C3.45728571,18 3.06098469,17.6369949 3.00681013,17.1727992 L3.0005,17.064 L3.0005,16.936 C3.0005,16.4577857 3.36264286,16.0606224 3.82671538,16.0063247 L3.9355,16 L20.0645,16 Z M4,11 C4.552,11 5,11.447 5,12 C5,12.553 4.552,13 4,13 C3.448,13 3,12.553 3,12 C3,11.447 3.448,11 4,11 Z M20.0645,11 C20.5427143,11 20.9398776,11.3630051 20.9941753,11.8272008 L21.0005,11.936 L21.0005,12.064 C21.0005,12.5422143 20.6374949,12.9393776 20.1732992,12.9936753 L20.0645,13 L7.9355,13 C7.45728571,13 7.06098469,12.6369949 7.00681013,12.1727992 L7.0005,12.064 L7.0005,11.936 C7.0005,11.4577857 7.36264286,11.0606224 7.82671538,11.0063247 L7.9355,11 L20.0645,11 Z M20.0645,6 C20.5795,6 21.0005,6.421 21.0005,6.936 L21.0005,6.936 L21.0005,7.064 C21.0005,7.579 20.5795,8 20.0645,8 L20.0645,8 L3.9355,8 C3.4205,8 3.0005,7.579 3.0005,7.064 L3.0005,7.064 L3.0005,6.936 C3.0005,6.421 3.4205,6 3.9355,6 L3.9355,6 Z" id="path-1"></path>
    </defs>
    <g id="Icons" stroke="none" stroke-width="1" fill="none" fill-rule="evenodd">
        <g transform="translate(-18.000000, -18.000000)" id="menu-2">
            <g transform="translate(15.000000, 12.000000)">
                <mask id="mask-2" fill="white">
                    <use xlink:href="#path-1"></use>
                </mask>
                <use id="🎨-Icon-Сolor" fill="#000000" fill-rule="evenodd" xlink:href="#path-1"></use>
            </g>
        </g>
    </g>
</svg>