<?xml version="1.0" encoding="utf-8"?>
<!-- Generator: Adobe Illustrator 22.1.0, SVG Export Plug-In . SVG Version: 6.00 Build 0)  -->
<svg version="1.1" width="70" height="70" id="Layer_1" xmlns="http://www.w3.org/2000/svg" xmlns:xlink="http://www.w3.org/1999/xlink" x="0px" y="0px"
	 viewBox="0 0 70 70" style="enable-background:new 0 0 70 70;" xml:space="preserve">
<style type="text/css">
	.st0{fill:#222B45;}
	.st1{fill:#8F9BB3;}
</style>
<title>A4D5DD11-35F7-4727-930E-1F2990FEBAEC</title>
<desc>Created with sketchtool.</desc>
<g id="Portfolio---MVP">
	<g id="Accumulation---Portfolio---Desktop" transform="translate(0.000000, -134.000000)">
		<g id="Group-5-Copy" transform="translate(0.000000, 134.000000)">
			<rect id="Rectangle" x="-0.6" class="st0" width="70.6" height="70"/>
		</g>
	</g>
</g>
<g id="moon-fill" transform="translate(1186.000000, 20.000000)">
	<g id="_xD83C__xDFA8_-Icon-Сolor_2_">
		<path id="path-5_1_" class="st1" d="M-1151.1,22.3C-1151.2,22.3-1151.2,22.3-1151.1,22.3c-2.9,0-5.5-1-7.4-2.8
			c-3.7-3.4-3.8-9-0.3-12.5c1.1-1.1,2.4-1.9,4-2.4c0.4-0.1,0.8,0,1.1,0.2c0.3,0.2,0.4,0.6,0.2,0.9c-1.1,2.7-0.4,5.8,1.9,7.8
			s5.8,2.7,8.8,1.7c0.4-0.1,0.8,0,1.1,0.2c0.3,0.2,0.4,0.6,0.2,0.9c-0.5,1.2-1.3,2.3-2.3,3.2C-1145.8,21.3-1148.4,22.3-1151.1,22.3"
			/>
	</g>
</g>
</svg>
