<?xml version="1.0" encoding="UTF-8"?>
<svg width="21px" height="25px" viewBox="0 0 21 25" version="1.1" xmlns="http://www.w3.org/2000/svg" xmlns:xlink="http://www.w3.org/1999/xlink">
    <!-- Generator: sketchtool 57.1 (101010) - https://sketch.com -->
    <title>61B6A6C1-C95A-4DA2-8B42-1F752822E702</title>
    <desc>Created with sketchtool.</desc>
    <defs>
        <path d="M5.5146,16 L6.6946,14.818 C7.0726,14.44 7.2806,13.938 7.2806,13.404 L7.2806,8.727 C7.2806,7.37 7.8706,6.073 8.9006,5.171 C9.9386,4.261 11.2606,3.861 12.6376,4.042 C14.9646,4.351 16.7196,6.455 16.7196,8.937 L16.7196,13.404 C16.7196,13.938 16.9276,14.44 17.3046,14.817 L18.4856,16 L5.5146,16 Z M13.9996,18.341 C13.9996,19.24 13.0836,20 11.9996,20 C10.9156,20 9.9996,19.24 9.9996,18.341 L9.9996,18 L13.9996,18 L13.9996,18.341 Z M20.5206,15.208 L18.7196,13.404 L18.7196,8.937 C18.7196,5.456 16.2176,2.499 12.8996,2.06 C10.9776,1.804 9.0376,2.391 7.5826,3.667 C6.1186,4.949 5.2806,6.793 5.2806,8.727 L5.2796,13.404 L3.4786,15.208 C3.0096,15.678 2.8706,16.377 3.1246,16.99 C3.3796,17.604 3.9726,18 4.6366,18 L7.9996,18 L7.9996,18.341 C7.9996,20.359 9.7936,22 11.9996,22 C14.2056,22 15.9996,20.359 15.9996,18.341 L15.9996,18 L19.3626,18 C20.0266,18 20.6186,17.604 20.8726,16.991 C21.1276,16.377 20.9896,15.677 20.5206,15.208 L20.5206,15.208 Z" id="path-1"></path>
    </defs>
    <g id="Portfolio---MVP" stroke="none" stroke-width="1" fill="none" fill-rule="evenodd">
        <g id="Accumulation---Notification-Sidebar---Desktop" transform="translate(-1245.000000, -17.000000)">
            <g id="Group-4">
                <g id="Group-9" transform="translate(1242.000000, 17.000000)">
                    <g id="bell" transform="translate(0.000000, 3.000000)">
                        <mask id="mask-2" fill="white">
                            <use xlink:href="#path-1"></use>
                        </mask>
                        <use id="🎨-Icon-Сolor" fill="#FFFFFF" fill-rule="evenodd" xlink:href="#path-1"></use>
                    </g>
                    <circle id="Oval" fill="#00D68F" cx="18" cy="6" r="6"></circle>
                </g>
            </g>
        </g>
    </g>
</svg>